<?xml version="1.0" standalone="no"?>
<!DOCTYPE svg PUBLIC "-//W3C//DTD SVG 20010904//EN"
 "http://www.w3.org/TR/2001/REC-SVG-20010904/DTD/svg10.dtd">
<svg version="1.0" xmlns="http://www.w3.org/2000/svg"
 width="262.000000pt" height="262.000000pt" viewBox="0 0 262.000000 262.000000"
 preserveAspectRatio="xMidYMid meet">
<metadata>
Created by potrace 1.14, written by Peter Selinger 2001-2017
</metadata>
<g transform="translate(0.000000,262.000000) scale(0.100000,-0.100000)"
fill="#000000" stroke="none">
<path d="M1264 2601 c-16 -10 -49 -29 -74 -43 -53 -29 -805 -466 -932 -541
-79 -46 -88 -54 -89 -82 0 -41 0 -1179 1 -1235 0 -49 -8 -41 115 -110 28 -15
144 -82 258 -149 115 -67 210 -121 212 -121 2 0 32 -17 67 -39 101 -61 466
-271 472 -271 6 0 124 67 374 211 17 11 47 27 65 38 17 10 88 51 157 91 69 40
145 84 170 98 25 14 78 45 118 69 41 24 75 43 76 43 2 0 41 22 87 50 l84 50 1
649 0 648 -220 129 c-120 71 -242 142 -270 158 -28 15 -63 37 -78 47 -14 10
-28 19 -31 19 -3 0 -73 41 -156 90 -84 50 -154 90 -156 90 -2 0 -39 22 -82 49
-132 82 -135 83 -169 62z"/>
</g>
</svg>
